<svg width="164" height="60" viewBox="0 0 164 60" fill="none" xmlns="http://www.w3.org/2000/svg">
<path d="M0.155273 60V0.409997H3.18527V60H0.155273ZM6.21527 60V0.409997H9.24527V60H6.21527ZM18.3353 60V0.409997H24.3953V60H18.3353ZM33.4932 60V0.409997H39.5532V60H33.4932ZM45.6132 60V0.409997H54.7032V60H45.6132ZM60.7632 60V0.409997H63.7932V60H60.7632ZM66.8311 60V0.409997H69.8611V60H66.8311ZM78.9511 60V0.409997H85.0111V60H78.9511ZM88.0411 60V0.409997H91.0711V60H88.0411ZM100.169 60V0.409997H103.199V60H100.169ZM106.229 60V0.409997H112.289V60H106.229ZM121.379 60V0.409997H124.409V60H121.379ZM133.507 60V0.409997H142.597V60H133.507ZM145.627 60V0.409997H151.687V60H145.627ZM154.717 60V0.409997H163.807V60H154.717Z" fill="black" fill-opacity="0.8"/>
</svg>
