<svg width="40" height="40" viewBox="0 0 40 40" fill="none" xmlns="http://www.w3.org/2000/svg">
<circle cx="20" cy="20" r="20" fill="#FCFCF8"/>
<path d="M12.625 12.625H15.125L16.8 20.9938C16.8572 21.2815 17.0137 21.54 17.2422 21.7239C17.4707 21.9079 17.7567 22.0056 18.05 22H24.125C24.4183 22.0056 24.7043 21.9079 24.9328 21.7239C25.1613 21.54 25.3178 21.2815 25.375 20.9938L26.375 15.75H15.75M18.25 25.125C18.25 25.4702 17.9702 25.75 17.625 25.75C17.2798 25.75 17 25.4702 17 25.125C17 24.7798 17.2798 24.5 17.625 24.5C17.9702 24.5 18.25 24.7798 18.25 25.125ZM25.125 25.125C25.125 25.4702 24.8452 25.75 24.5 25.75C24.1548 25.75 23.875 25.4702 23.875 25.125C23.875 24.7798 24.1548 24.5 24.5 24.5C24.8452 24.5 25.125 24.7798 25.125 25.125Z" stroke="black" stroke-width="2" stroke-linecap="round" stroke-linejoin="round"/>
</svg>
