<svg width="24" height="24" viewBox="0 0 24 24" fill="none" xmlns="http://www.w3.org/2000/svg">
<path fill-rule="evenodd" clip-rule="evenodd" d="M1 3C0.447715 3 0 3.44772 0 4C0 4.55228 0.447715 5 1 5H3.35324L7.39363 16.1009C7.51187 16.4257 7.78095 16.6521 8.09298 16.7297C8.25783 16.8494 8.46067 16.92 8.68 16.92H19.16C19.5672 16.92 19.9176 16.6766 20.0735 16.3273C20.3286 16.2253 20.5407 16.0192 20.642 15.7408L23.7434 7.21969C23.8297 6.98283 23.8208 6.73454 23.7363 6.51663C23.9 6.33857 24 6.10095 24 5.83999C24 5.28771 23.5523 4.83999 23 4.83999H5.42336L5.02141 3.73564C4.95959 3.56578 4.85652 3.42285 4.72764 3.31404C4.5453 3.12069 4.28675 3 4 3H1ZM6.1513 6.83999H8.75385L8.92756 7.82516L6.59329 7.83299C6.56658 7.83308 6.54012 7.83421 6.51395 7.83636L6.1513 6.83999ZM9.94238 7.82176L9.76927 6.83999H13.4004C13.4001 6.84663 13.4 6.85329 13.4 6.85999V7.81017L9.94238 7.82176ZM14.4 6.85999C14.4 6.85329 14.3999 6.84663 14.3996 6.83999H17.9686L17.8002 7.79542L14.4 7.80682V6.85999ZM10.2948 9.82059L13.4 9.81018V11.08H10.5169L10.2948 9.82059ZM9.50147 11.08L9.28001 9.82399L7.23988 9.83083L7.69453 11.08H9.50147ZM8.42247 13.08H9.85413L10.1786 14.92H9.09218L8.42247 13.08ZM10.8696 13.08H13.4V14.92H11.194L10.8696 13.08ZM14.4 13.08V14.92H16.5439L16.8684 13.08H14.4ZM17.8838 13.08L17.5593 14.92H18.8124L19.4821 13.08H17.8838ZM20.2101 11.08H18.2364L18.4633 9.79321L20.6811 9.78577L20.2101 11.08ZM17.221 11.08H14.4V9.80683L17.4473 9.79661L17.221 11.08ZM18.8162 7.79201L18.9841 6.83999H21.7533L21.4099 7.78346L21.3931 7.78338L18.8162 7.79201ZM11.04 19.08C11.04 20.0078 10.2878 20.76 9.36 20.76C8.43216 20.76 7.68 20.0078 7.68 19.08C7.68 18.1522 8.43216 17.4 9.36 17.4C10.2878 17.4 11.04 18.1522 11.04 19.08ZM18.48 20.76C19.4078 20.76 20.16 20.0078 20.16 19.08C20.16 18.1522 19.4078 17.4 18.48 17.4C17.5522 17.4 16.8 18.1522 16.8 19.08C16.8 20.0078 17.5522 20.76 18.48 20.76Z" fill="#292929"/>
</svg>
