<svg width="186" height="73" viewBox="0 0 186 73" fill="none" xmlns="http://www.w3.org/2000/svg">
<circle cx="34" cy="36.76" r="32" fill="#FDBC1F"/>
<path d="M97.48 20.88V24.96C95.6933 23.84 93.6667 23.28 91.4 23.28C89.9333 23.28 88.7733 23.6133 87.92 24.28C87.0933 24.92 86.68 25.7733 86.68 26.84C86.68 27.9067 87.0933 28.76 87.92 29.4C88.7467 30.04 90.0133 30.7333 91.72 31.48C92.84 31.96 93.7067 32.3733 94.32 32.72C94.96 33.0667 95.68 33.56 96.48 34.2C97.3067 34.8133 97.9067 35.56 98.28 36.44C98.68 37.2933 98.88 38.28 98.88 39.4C98.88 41.7733 98.04 43.64 96.36 45C94.68 46.36 92.5067 47.04 89.84 47.04C86.88 47.04 84.4267 46.4667 82.48 45.32V41.04C84.5867 42.6133 87.0267 43.4 89.8 43.4C91.2667 43.4 92.4267 43.0667 93.28 42.4C94.1333 41.7067 94.56 40.76 94.56 39.56C94.56 38.84 94.3067 38.1867 93.8 37.6C93.2933 36.9867 92.7467 36.5333 92.16 36.24C91.5733 35.92 90.6933 35.4933 89.52 34.96C88.8267 34.64 88.3333 34.4133 88.04 34.28C87.7733 34.1467 87.32 33.9067 86.68 33.56C86.04 33.2133 85.56 32.92 85.24 32.68C84.9467 32.44 84.5733 32.1067 84.12 31.68C83.6667 31.2533 83.3333 30.8267 83.12 30.4C82.9333 29.9733 82.7467 29.48 82.56 28.92C82.4 28.3333 82.32 27.7067 82.32 27.04C82.32 24.7467 83.1467 22.9333 84.8 21.6C86.48 20.2667 88.64 19.6 91.28 19.6C93.7067 19.6 95.7733 20.0267 97.48 20.88ZM102.099 46.76V19.8H106.179V46.76H102.099ZM110.326 46.76V19.8H115.206L121.846 31.08C123.073 33.1867 124.18 35.1333 125.166 36.92C126.18 38.7067 126.873 39.96 127.246 40.68L127.806 41.8C127.646 39.3733 127.566 35.8133 127.566 31.12V19.8H131.686V46.76H126.806L120.126 35.52C118.926 33.4933 117.82 31.5867 116.806 29.8C115.82 27.9867 115.126 26.68 114.726 25.88L114.126 24.72C114.34 27.3867 114.446 30.9733 114.446 35.48V46.76H110.326ZM151.714 36.52V19.8H155.834V36.44C155.834 39.9333 154.927 42.5867 153.114 44.4C151.3 46.2133 148.794 47.12 145.594 47.12C142.447 47.12 139.967 46.24 138.154 44.48C136.34 42.6933 135.434 40.12 135.434 36.76V19.8H139.554V36.72C139.554 39.0133 140.1 40.6933 141.194 41.76C142.314 42.8 143.78 43.32 145.594 43.32C149.674 43.32 151.714 41.0533 151.714 36.52ZM174.168 20.88V24.96C172.381 23.84 170.354 23.28 168.088 23.28C166.621 23.28 165.461 23.6133 164.608 24.28C163.781 24.92 163.368 25.7733 163.368 26.84C163.368 27.9067 163.781 28.76 164.608 29.4C165.434 30.04 166.701 30.7333 168.408 31.48C169.528 31.96 170.394 32.3733 171.008 32.72C171.648 33.0667 172.368 33.56 173.168 34.2C173.994 34.8133 174.594 35.56 174.968 36.44C175.368 37.2933 175.568 38.28 175.568 39.4C175.568 41.7733 174.728 43.64 173.048 45C171.368 46.36 169.194 47.04 166.528 47.04C163.568 47.04 161.114 46.4667 159.168 45.32V41.04C161.274 42.6133 163.714 43.4 166.488 43.4C167.954 43.4 169.114 43.0667 169.968 42.4C170.821 41.7067 171.248 40.76 171.248 39.56C171.248 38.84 170.994 38.1867 170.488 37.6C169.981 36.9867 169.434 36.5333 168.848 36.24C168.261 35.92 167.381 35.4933 166.208 34.96C165.514 34.64 165.021 34.4133 164.728 34.28C164.461 34.1467 164.008 33.9067 163.368 33.56C162.728 33.2133 162.248 32.92 161.928 32.68C161.634 32.44 161.261 32.1067 160.808 31.68C160.354 31.2533 160.021 30.8267 159.808 30.4C159.621 29.9733 159.434 29.48 159.248 28.92C159.088 28.3333 159.008 27.7067 159.008 27.04C159.008 24.7467 159.834 22.9333 161.488 21.6C163.168 20.2667 165.328 19.6 167.968 19.6C170.394 19.6 172.461 20.0267 174.168 20.88Z" fill="#FDBC1F"/>
<path d="M86.496 53.584V54.4C86.1387 54.176 85.7333 54.064 85.28 54.064C84.9867 54.064 84.7547 54.1307 84.584 54.264C84.4187 54.392 84.336 54.5627 84.336 54.776C84.336 54.9893 84.4187 55.16 84.584 55.288C84.7493 55.416 85.0027 55.5547 85.344 55.704C85.568 55.8 85.7413 55.8827 85.864 55.952C85.992 56.0213 86.136 56.12 86.296 56.248C86.4613 56.3707 86.5813 56.52 86.656 56.696C86.736 56.8667 86.776 57.064 86.776 57.288C86.776 57.7627 86.608 58.136 86.272 58.408C85.936 58.68 85.5013 58.816 84.968 58.816C84.376 58.816 83.8853 58.7013 83.496 58.472V57.616C83.9173 57.9307 84.4053 58.088 84.96 58.088C85.2533 58.088 85.4853 58.0213 85.656 57.888C85.8267 57.7493 85.912 57.56 85.912 57.32C85.912 57.176 85.8613 57.0453 85.76 56.928C85.6587 56.8053 85.5493 56.7147 85.432 56.656C85.3147 56.592 85.1387 56.5067 84.904 56.4C84.7653 56.336 84.6667 56.2907 84.608 56.264C84.5547 56.2373 84.464 56.1893 84.336 56.12C84.208 56.0507 84.112 55.992 84.048 55.944C83.9893 55.896 83.9147 55.8293 83.824 55.744C83.7333 55.6587 83.6667 55.5733 83.624 55.488C83.5867 55.4027 83.5493 55.304 83.512 55.192C83.48 55.0747 83.464 54.9493 83.464 54.816C83.464 54.3573 83.6293 53.9947 83.96 53.728C84.296 53.4613 84.728 53.328 85.256 53.328C85.7413 53.328 86.1547 53.4133 86.496 53.584ZM89.7559 58.76V53.368H90.5799V58.76H89.7559ZM91.6679 56.088L93.7639 58.76H92.7239L90.6839 56.096L92.6439 53.368H93.6439L91.6679 56.088ZM97.7369 56.752H99.4649L99.3769 56.48C99.1743 55.8507 99.0089 55.3307 98.8809 54.92C98.7529 54.504 98.6756 54.2453 98.6489 54.144L98.6089 53.992C98.5503 54.2427 98.2889 55.072 97.8249 56.48L97.7369 56.752ZM100.113 58.76L99.6889 57.44H97.5129L97.0809 58.76H96.2089L98.0729 53.368H99.1529L100.993 58.76H100.113ZM107.066 53.368V54.056H105.65V58.76H104.826V54.056H103.418V53.368H107.066ZM110.65 58.072H112.938V58.76H109.826V53.368H112.898V54.056H110.65V55.72H112.642V56.408H110.65V58.072ZM116.76 58.08H117.816C118.493 58.08 118.832 57.8 118.832 57.24C118.832 56.968 118.738 56.7573 118.552 56.608C118.37 56.4533 118.098 56.376 117.736 56.376H116.76V58.08ZM116.76 54.048V55.704H117.504C117.904 55.704 118.2 55.624 118.392 55.464C118.589 55.2987 118.688 55.0853 118.688 54.824C118.688 54.5947 118.6 54.408 118.424 54.264C118.253 54.12 117.992 54.048 117.64 54.048H116.76ZM115.936 53.368H117.704C118.269 53.368 118.714 53.5013 119.04 53.768C119.365 54.0293 119.528 54.376 119.528 54.808C119.528 55.1067 119.442 55.368 119.272 55.592C119.106 55.816 118.893 55.96 118.632 56.024C118.925 56.0773 119.17 56.2133 119.368 56.432C119.57 56.6507 119.672 56.944 119.672 57.312C119.672 57.7387 119.525 58.088 119.232 58.36C118.944 58.6267 118.536 58.76 118.008 58.76H115.936V53.368ZM122.368 56.04C122.368 55.2027 122.592 54.5307 123.04 54.024C123.488 53.5173 124.088 53.264 124.84 53.264C125.608 53.264 126.213 53.5173 126.656 54.024C127.099 54.5253 127.32 55.1973 127.32 56.04C127.32 56.8827 127.096 57.5573 126.648 58.064C126.205 58.5707 125.605 58.824 124.848 58.824C124.096 58.824 123.493 58.5707 123.04 58.064C122.592 57.5573 122.368 56.8827 122.368 56.04ZM123.656 54.576C123.373 54.9333 123.232 55.4213 123.232 56.04C123.232 56.6587 123.379 57.1493 123.672 57.512C123.965 57.8747 124.357 58.056 124.848 58.056C125.355 58.056 125.749 57.8773 126.032 57.52C126.315 57.1627 126.456 56.6693 126.456 56.04C126.456 55.416 126.312 54.9253 126.024 54.568C125.741 54.2107 125.347 54.032 124.84 54.032C124.339 54.032 123.944 54.2133 123.656 54.576ZM131.464 56.752H133.192L133.104 56.48C132.901 55.8507 132.736 55.3307 132.608 54.92C132.48 54.504 132.402 54.2453 132.376 54.144L132.336 53.992C132.277 54.2427 132.016 55.072 131.552 56.48L131.464 56.752ZM133.84 58.76L133.416 57.44H131.24L130.808 58.76H129.936L131.799 53.368H132.88L134.72 58.76H133.84ZM138.377 54.056V56.024H139.121C139.462 56.024 139.721 55.936 139.897 55.76C140.073 55.5787 140.161 55.3387 140.161 55.04C140.161 54.384 139.801 54.056 139.081 54.056H138.377ZM140.353 58.76L139.089 56.712H138.377V58.76H137.553V53.368H139.057C139.675 53.368 140.153 53.52 140.489 53.824C140.825 54.1227 140.993 54.5307 140.993 55.048C140.987 55.4267 140.891 55.7493 140.705 56.016C140.518 56.2773 140.259 56.4667 139.929 56.584L141.337 58.76H140.353ZM144.94 58.064H145.788C146.401 58.064 146.868 57.872 147.188 57.488C147.508 57.104 147.668 56.6107 147.668 56.008C147.668 55.4533 147.494 54.992 147.148 54.624C146.801 54.256 146.34 54.072 145.764 54.072H144.94V58.064ZM144.1 53.368H145.78C146.58 53.368 147.236 53.616 147.748 54.112C148.26 54.608 148.516 55.24 148.516 56.008C148.516 56.808 148.273 57.4667 147.788 57.984C147.308 58.5013 146.644 58.76 145.796 58.76H144.1V53.368ZM154.348 53.584V54.4C153.99 54.176 153.585 54.064 153.132 54.064C152.838 54.064 152.606 54.1307 152.436 54.264C152.27 54.392 152.188 54.5627 152.188 54.776C152.188 54.9893 152.27 55.16 152.436 55.288C152.601 55.416 152.854 55.5547 153.196 55.704C153.42 55.8 153.593 55.8827 153.716 55.952C153.844 56.0213 153.988 56.12 154.148 56.248C154.313 56.3707 154.433 56.52 154.508 56.696C154.588 56.8667 154.628 57.064 154.628 57.288C154.628 57.7627 154.46 58.136 154.124 58.408C153.788 58.68 153.353 58.816 152.82 58.816C152.228 58.816 151.737 58.7013 151.348 58.472V57.616C151.769 57.9307 152.257 58.088 152.812 58.088C153.105 58.088 153.337 58.0213 153.508 57.888C153.678 57.7493 153.764 57.56 153.764 57.32C153.764 57.176 153.713 57.0453 153.612 56.928C153.51 56.8053 153.401 56.7147 153.284 56.656C153.166 56.592 152.99 56.5067 152.756 56.4C152.617 56.336 152.518 56.2907 152.46 56.264C152.406 56.2373 152.316 56.1893 152.188 56.12C152.06 56.0507 151.964 55.992 151.9 55.944C151.841 55.896 151.766 55.8293 151.676 55.744C151.585 55.6587 151.518 55.5733 151.476 55.488C151.438 55.4027 151.401 55.304 151.364 55.192C151.332 55.0747 151.316 54.9493 151.316 54.816C151.316 54.3573 151.481 53.9947 151.812 53.728C152.148 53.4613 152.58 53.328 153.108 53.328C153.593 53.328 154.006 53.4133 154.348 53.584Z" fill="black"/>
<g style="mix-blend-mode:darken">
<path d="M21 31.3055L21 45.9329C21 47.4943 22.2658 48.76 23.8272 48.76V48.76C25.3939 48.76 26.6618 47.4859 26.6543 45.9192L26.5693 28.3196C26.5598 26.3565 28.1485 24.76 30.1117 24.76V24.76C32.0614 24.76 33.6446 26.3356 33.6541 28.2853L33.7393 45.9397C33.7469 47.4995 35.0135 48.76 36.5733 48.76V48.76C38.1438 48.76 39.4148 47.4828 39.4072 45.9124L39.3222 28.311C39.3127 26.3526 40.8977 24.76 42.8561 24.76V24.76C44.8078 24.76 46.39 26.3422 46.39 28.2939V44.3964" stroke="black" stroke-linecap="round"/>
</g>
</svg>
