<svg width="36" height="32" viewBox="0 0 36 32" fill="none" xmlns="http://www.w3.org/2000/svg">
<path fill-rule="evenodd" clip-rule="evenodd" d="M31.7832 1.7964C27.033 -1.46763 21.1673 0.0555867 18.0005 3.79108C14.8337 0.0555867 8.96797 -1.48576 4.21779 1.7964C1.69876 3.53722 0.115371 6.47484 0.0074122 9.57567C-0.244491 16.6115 5.94513 22.251 15.3915 30.9006L15.5714 31.0638C16.9389 32.3151 19.0441 32.3151 20.4116 31.0457L20.6095 30.8644C30.0559 22.2328 36.2275 16.5933 35.9936 9.55753C35.8856 6.47484 34.3022 3.53722 31.7832 1.7964ZM18.1804 28.1988L18.0005 28.3801L17.8206 28.1988C9.25586 20.3832 3.60603 15.2152 3.60603 9.9746C3.60603 6.34791 6.30499 3.62788 9.90361 3.62788C12.6745 3.62788 15.3735 5.4231 16.3271 7.90738H19.6918C20.6275 5.4231 23.3264 3.62788 26.0974 3.62788C29.696 3.62788 32.395 6.34791 32.395 9.9746C32.395 15.2152 26.7451 20.3832 18.1804 28.1988Z" fill="#C41514"/>
</svg>
