<svg width="166" height="23" viewBox="0 0 166 23" fill="none" xmlns="http://www.w3.org/2000/svg">
<path d="M136 1.26001H162C163.933 1.26001 165.5 2.82701 165.5 4.76001V18.76C165.5 20.693 163.933 22.26 162 22.26H136C134.067 22.26 132.5 20.693 132.5 18.76V4.76001C132.5 2.82701 134.067 1.26001 136 1.26001Z" fill="white" stroke="#EEEEEE"/>
<path fill-rule="evenodd" clip-rule="evenodd" d="M153.361 8.09437L153.083 9.74114C152.25 9.27037 150.354 9.15898 150.354 10.0261C150.354 10.3705 150.783 10.6074 151.3 10.8929C152.084 11.326 153.071 11.8709 153.071 13.0724C153.071 14.9924 151.067 15.6979 149.738 15.6979C148.41 15.6979 147.541 15.2648 147.541 15.2648L147.831 13.543C148.628 14.1992 151.043 14.3857 151.043 13.345C151.043 12.9078 150.567 12.6499 150.016 12.3509C149.255 11.9383 148.35 11.4473 148.35 10.2987C148.35 8.19304 150.644 7.76001 151.61 7.76001C152.504 7.76001 153.361 8.09437 153.361 8.09437ZM159.856 15.5655H158.069L157.841 14.4265H155.366L154.96 15.5655H152.931L155.834 8.46832C155.834 8.46832 156.01 7.89683 156.733 7.89683H158.298L159.856 15.5655ZM142.758 7.89704L140.902 13.1715L140.682 12.0357L140.682 12.0361L140.027 8.5875C140.027 8.5875 139.948 7.89704 139.104 7.89704H136.036L136 8.02688C136 8.02688 136.938 8.22709 138.036 8.90339L139.727 15.5658H141.756L144.853 7.89704H142.758ZM146.342 15.5655H144.395L145.612 7.89704H147.559L146.342 15.5655ZM155.927 12.8529L156.949 9.98319L157.525 12.8529H155.927Z" fill="#2566AF"/>
<path d="M140.682 12.0358L140.027 8.58719C140.027 8.58719 139.948 7.89673 139.104 7.89673H136.036L136 8.02657C136 8.02657 137.475 8.34001 138.889 9.51437C140.241 10.6368 140.682 12.0358 140.682 12.0358Z" fill="#E6A540"/>
<path d="M92 1.26001H118C119.933 1.26001 121.5 2.82701 121.5 4.76001V18.76C121.5 20.693 119.933 22.26 118 22.26H92C90.067 22.26 88.5 20.693 88.5 18.76V4.76001C88.5 2.82701 90.067 1.26001 92 1.26001Z" fill="white" stroke="#EEEEEE"/>
<path d="M109.099 5.8158C108.462 5.07683 107.309 4.76001 105.835 4.76001H101.556C101.255 4.76002 100.998 4.98284 100.951 5.28551L99.1697 16.7767C99.1343 17.0033 99.3068 17.2085 99.5326 17.2085H102.174L102.837 12.9291L102.817 13.0631C102.864 12.7607 103.119 12.5376 103.42 12.5376H104.675C107.141 12.5376 109.072 11.5189 109.636 8.57229C109.652 8.48514 109.667 8.40032 109.679 8.31745C109.608 8.27911 109.608 8.27911 109.679 8.31745C109.847 7.22834 109.678 6.48699 109.099 5.8158" fill="#27346A"/>
<path d="M103.848 7.92511C103.92 7.89014 103.999 7.87202 104.079 7.87207H107.434C107.831 7.87207 108.201 7.89836 108.54 7.95378C108.635 7.96914 108.729 7.98748 108.823 8.00877C108.955 8.03855 109.086 8.075 109.216 8.11798C109.382 8.17451 109.537 8.24035 109.679 8.31745C109.847 7.22792 109.678 6.48699 109.099 5.8158C108.461 5.07683 107.309 4.76001 105.835 4.76001H101.556C101.255 4.76001 100.998 4.98307 100.951 5.28551L99.1697 16.7763C99.1343 17.0032 99.3068 17.2082 99.5322 17.2082H102.174L103.55 8.33178C103.578 8.15467 103.689 8.00262 103.848 7.92511Z" fill="#27346A"/>
<path d="M109.636 8.57222C109.072 11.5185 107.141 12.5375 104.675 12.5375H103.42C103.118 12.5375 102.864 12.7606 102.817 13.0631L101.992 18.3839C101.961 18.5822 102.112 18.7619 102.309 18.7619H104.536C104.799 18.7619 105.024 18.5669 105.065 18.3022L105.086 18.1868L105.506 15.4818L105.533 15.3323C105.574 15.0676 105.799 14.8727 106.062 14.8726H106.395C108.552 14.8726 110.241 13.9814 110.735 11.4039C110.941 10.3267 110.834 9.42738 110.289 8.7957C110.124 8.60438 109.919 8.44636 109.68 8.31738C109.667 8.40067 109.653 8.48507 109.636 8.57222V8.57222Z" fill="#2790C3"/>
<path d="M109.089 8.07791C109.001 8.05179 108.913 8.02867 108.823 8.00858C108.729 7.98763 108.635 7.96942 108.541 7.95395C108.202 7.89816 107.831 7.87183 107.434 7.87183H104.08C104 7.87164 103.921 7.88992 103.849 7.92529C103.69 8.00257 103.578 8.15473 103.551 8.33196L102.838 12.9289L102.817 13.063C102.864 12.7605 103.119 12.5374 103.42 12.5374H104.676C107.141 12.5374 109.072 11.5187 109.636 8.57209C109.653 8.48494 109.667 8.40049 109.68 8.31725C109.537 8.24057 109.383 8.17431 109.216 8.11815C109.174 8.10399 109.132 8.09057 109.089 8.07791" fill="#1F264F"/>
<path d="M48 1.26001H74C75.933 1.26001 77.5 2.82701 77.5 4.76001V18.76C77.5 20.693 75.933 22.26 74 22.26H48C46.067 22.26 44.5 20.693 44.5 18.76V4.76001C44.5 2.82701 46.067 1.26001 48 1.26001Z" fill="white" stroke="#EEEEEE"/>
<path fill-rule="evenodd" clip-rule="evenodd" d="M59.0897 11.6127C59.0897 9.77577 59.9384 8.1403 61.2598 7.08191C60.2854 6.30146 59.0545 5.83423 57.7149 5.83423C54.5587 5.83423 52 8.42136 52 11.6127C52 14.804 54.5587 17.3911 57.7149 17.3911C59.0545 17.3911 60.2854 16.9239 61.2598 16.1435C59.9384 15.0851 59.0897 13.4496 59.0897 11.6127" fill="#EB001B"/>
<path fill-rule="evenodd" clip-rule="evenodd" d="M59.0898 11.6128C59.0898 13.4497 59.9385 15.0852 61.26 16.1436C62.5813 15.0852 63.43 13.4497 63.43 11.6128C63.43 9.77589 62.5813 8.14042 61.26 7.08203C59.9385 8.14042 59.0898 9.77589 59.0898 11.6128" fill="#FF5E00"/>
<path fill-rule="evenodd" clip-rule="evenodd" d="M64.8046 5.83423C63.465 5.83423 62.2341 6.30146 61.2598 7.08191C62.5811 8.14038 63.4298 9.77577 63.4298 11.6127C63.4298 13.4496 62.5811 15.0851 61.2598 16.1435C62.2341 16.9239 63.465 17.3911 64.8046 17.3911C67.9608 17.3911 70.5195 14.804 70.5195 11.6127C70.5195 8.42136 67.9608 5.83423 64.8046 5.83423" fill="#F79E1C"/>
<path d="M4 1.26001H30C31.933 1.26001 33.5 2.82701 33.5 4.76001V18.76C33.5 20.693 31.933 22.26 30 22.26H4C2.067 22.26 0.5 20.693 0.5 18.76V4.76001C0.5 2.82701 2.067 1.26001 4 1.26001Z" fill="white" stroke="#EEEEEE"/>
<path fill-rule="evenodd" clip-rule="evenodd" d="M11.5797 7.76001H10.4251L9.56419 9.75472L8.64027 7.76001H7.50646V10.5316L6.30963 7.76001H5.25984L4 10.6996H4.75587L5.02879 10.0486H6.49853L6.77144 10.6996H8.19932V8.39001L9.22811 10.6996H9.83695L10.8659 8.39001V10.6996H11.5797V7.76001ZM27.2437 10.6996H26.236L24.9132 8.49488V10.6996H23.4856L23.2124 10.0486H21.7427L21.4697 10.6996H20.6507C20.3148 10.6996 19.8738 10.6156 19.6221 10.3636C19.391 10.1117 19.265 9.77573 19.265 9.25075C19.265 8.8098 19.328 8.41086 19.6428 8.09594C19.8527 7.86488 20.2308 7.76001 20.7136 7.76001H21.3854V8.39001H20.7136C20.4618 8.39001 20.3146 8.43202 20.1677 8.55805C20.0417 8.68408 19.9787 8.91498 19.9787 9.2299C19.9787 9.54482 20.0417 9.77588 20.1677 9.92291C20.2726 10.0278 20.4618 10.0698 20.6505 10.0698H20.9656L21.9734 7.76016H23.0233L24.1992 10.5318V7.76001H25.2911L26.53 9.79673V7.76001H27.2437V10.6996ZM26.236 14.2063C26.068 14.0591 25.8159 13.9752 25.417 13.9752H25.0392C24.9358 13.9752 24.8526 13.9546 24.7699 13.9342L24.7663 13.9333C24.6821 13.8912 24.6194 13.8282 24.6194 13.7231C24.6194 13.6181 24.6403 13.5551 24.7243 13.4921C24.7873 13.4502 24.8712 13.4502 24.9972 13.4502H26.2991V12.8202H24.8923C24.1363 12.8202 23.8842 13.2822 23.8842 13.7023C23.8842 14.5669 24.6019 14.5854 25.2277 14.6016C25.2704 14.6027 25.3127 14.6038 25.3543 14.6052C25.48 14.6052 25.5642 14.626 25.606 14.6682C25.6479 14.7101 25.6902 14.7939 25.6902 14.8781C25.6902 14.962 25.6481 15.025 25.606 15.0672C25.543 15.109 25.4592 15.1299 25.3331 15.1299H23.9683V15.7599H25.3331C26.0468 15.7599 26.4459 15.4661 26.4459 14.8362C26.4459 14.5423 26.3621 14.3531 26.236 14.2063ZM29.1967 14.8362C29.1967 15.4662 28.7977 15.7599 28.0837 15.7599H26.7192V15.1299H28.0837C28.2097 15.1299 28.3148 15.109 28.3569 15.0672C28.3988 15.025 28.4408 14.962 28.4408 14.8781C28.4408 14.7939 28.3989 14.7101 28.3569 14.6682C28.3148 14.626 28.2309 14.6052 28.1049 14.6052C28.0632 14.6038 28.0208 14.6027 27.9781 14.6016C27.3526 14.5855 26.6351 14.5669 26.6351 13.7023C26.6351 13.2822 26.908 12.8202 27.6429 12.8202H29.0496V13.4502H27.7478C27.6221 13.4502 27.5379 13.4502 27.4749 13.4921C27.4119 13.5551 27.37 13.6181 27.37 13.7231C27.37 13.8282 27.433 13.8912 27.5169 13.9333L27.5187 13.9338C27.6023 13.9545 27.6858 13.9752 27.7901 13.9752H28.1679C28.5668 13.9752 28.8189 14.0591 28.9869 14.2063C29.1127 14.3531 29.1967 14.5423 29.1967 14.8362ZM21.8898 15.1512H23.5483V15.76H21.1968V12.8205H23.5483V13.4294H21.8898V13.9755H23.5065V14.5632H21.8898V15.1512ZM20.4408 12.9676C20.2097 12.8415 19.9368 12.8204 19.5799 12.8204H17.9633V15.7599H18.677V14.6891H19.433C19.6848 14.6891 19.832 14.7102 19.937 14.8151C20.063 14.962 20.063 15.214 20.063 15.4031V15.7599H20.7557V15.1929C20.7557 14.92 20.7349 14.7939 20.6509 14.6471C20.5878 14.5629 20.4621 14.458 20.2941 14.395C20.4828 14.3323 20.798 14.0802 20.798 13.6181C20.7979 13.2823 20.6719 13.0933 20.4408 12.9676ZM14.2046 12.8204H16.4514C16.9974 12.8204 17.6274 12.9884 17.6275 13.7863C17.6275 14.6052 17.0184 14.7732 16.4095 14.7732H15.5276V15.7599H14.1628L13.3019 14.7939L12.3989 15.7599H9.60619V12.8204H12.4408L13.3017 13.7863L14.2046 12.8204ZM19.8738 14.0384C19.7689 14.0802 19.6639 14.0802 19.5379 14.0802L18.677 14.1014V13.4292H19.5379C19.6639 13.4292 19.79 13.4292 19.8738 13.4922C19.958 13.5344 20.0207 13.6183 20.0207 13.7443C20.0207 13.8703 19.958 13.9753 19.8738 14.0384ZM15.5275 14.1852H16.4514C16.7033 14.1852 16.8713 14.0384 16.8713 13.7863C16.8713 13.5344 16.7034 13.4292 16.4514 13.4292H15.5275V14.1852ZM13.7427 14.2901L14.8345 13.1355V15.5081L13.7427 14.2901ZM10.2991 15.1512H12.0419L12.8397 14.2903L12.0629 13.4294H10.2991V13.9755H11.8528V14.5632H10.2991V15.1512ZM18.1943 7.76001H18.908V10.6996H18.1943V7.76001ZM17.4172 7.88604C17.1861 7.76001 16.9343 7.76001 16.5774 7.76001H14.9605V10.6996H15.6533V9.62869H16.4092C16.6613 9.62869 16.8293 9.6497 16.9342 9.75472C17.045 9.88404 17.042 10.0946 17.0397 10.2577V10.2578C17.0394 10.2801 17.0391 10.3015 17.0391 10.3217V10.6996H17.7528V10.1117C17.7528 9.85975 17.7319 9.73372 17.627 9.58668C17.564 9.50266 17.438 9.39764 17.2911 9.33477C17.4799 9.25075 17.7951 9.01985 17.7951 8.55789C17.7952 8.22197 17.6481 8.03292 17.4172 7.88604ZM12.8187 10.0908H14.4565V10.6998H12.1049V7.76016H14.4565V8.369H12.8187V8.89397H14.4355V9.50281H12.8187V10.0908ZM22.4775 8.26398L22.9606 9.41879H21.9947L22.4775 8.26398ZM16.8713 8.95699C16.7665 9.02 16.6614 9.02 16.5144 9.02H15.6533V8.36915H16.5142C16.6403 8.36915 16.787 8.36915 16.8712 8.41116C16.955 8.47418 16.9972 8.5582 16.9972 8.68408C16.9972 8.80995 16.9552 8.91483 16.8713 8.95699ZM5.76366 8.26398L5.28069 9.41879H6.24662L5.76366 8.26398Z" fill="#0077A6"/>
</svg>
