<svg width="186" height="72" viewBox="0 0 186 72" fill="none" xmlns="http://www.w3.org/2000/svg">
<circle cx="34" cy="36" r="32" fill="white"/>
<path d="M97.48 20.12V24.2C95.6933 23.08 93.6667 22.52 91.4 22.52C89.9333 22.52 88.7733 22.8533 87.92 23.52C87.0933 24.16 86.68 25.0133 86.68 26.08C86.68 27.1467 87.0933 28 87.92 28.64C88.7467 29.28 90.0133 29.9733 91.72 30.72C92.84 31.2 93.7067 31.6133 94.32 31.96C94.96 32.3067 95.68 32.8 96.48 33.44C97.3067 34.0533 97.9067 34.8 98.28 35.68C98.68 36.5333 98.88 37.52 98.88 38.64C98.88 41.0133 98.04 42.88 96.36 44.24C94.68 45.6 92.5067 46.28 89.84 46.28C86.88 46.28 84.4267 45.7067 82.48 44.56V40.28C84.5867 41.8533 87.0267 42.64 89.8 42.64C91.2667 42.64 92.4267 42.3067 93.28 41.64C94.1333 40.9467 94.56 40 94.56 38.8C94.56 38.08 94.3067 37.4267 93.8 36.84C93.2933 36.2267 92.7467 35.7733 92.16 35.48C91.5733 35.16 90.6933 34.7333 89.52 34.2C88.8267 33.88 88.3333 33.6533 88.04 33.52C87.7733 33.3867 87.32 33.1467 86.68 32.8C86.04 32.4533 85.56 32.16 85.24 31.92C84.9467 31.68 84.5733 31.3467 84.12 30.92C83.6667 30.4933 83.3333 30.0667 83.12 29.64C82.9333 29.2133 82.7467 28.72 82.56 28.16C82.4 27.5733 82.32 26.9467 82.32 26.28C82.32 23.9867 83.1467 22.1733 84.8 20.84C86.48 19.5067 88.64 18.84 91.28 18.84C93.7067 18.84 95.7733 19.2667 97.48 20.12ZM102.099 46V19.04H106.179V46H102.099ZM110.326 46V19.04H115.206L121.846 30.32C123.073 32.4267 124.18 34.3733 125.166 36.16C126.18 37.9467 126.873 39.2 127.246 39.92L127.806 41.04C127.646 38.6133 127.566 35.0533 127.566 30.36V19.04H131.686V46H126.806L120.126 34.76C118.926 32.7333 117.82 30.8267 116.806 29.04C115.82 27.2267 115.126 25.92 114.726 25.12L114.126 23.96C114.34 26.6267 114.446 30.2133 114.446 34.72V46H110.326ZM151.714 35.76V19.04H155.834V35.68C155.834 39.1733 154.927 41.8267 153.114 43.64C151.3 45.4533 148.794 46.36 145.594 46.36C142.447 46.36 139.967 45.48 138.154 43.72C136.34 41.9333 135.434 39.36 135.434 36V19.04H139.554V35.96C139.554 38.2533 140.1 39.9333 141.194 41C142.314 42.04 143.78 42.56 145.594 42.56C149.674 42.56 151.714 40.2933 151.714 35.76ZM174.168 20.12V24.2C172.381 23.08 170.354 22.52 168.088 22.52C166.621 22.52 165.461 22.8533 164.608 23.52C163.781 24.16 163.368 25.0133 163.368 26.08C163.368 27.1467 163.781 28 164.608 28.64C165.434 29.28 166.701 29.9733 168.408 30.72C169.528 31.2 170.394 31.6133 171.008 31.96C171.648 32.3067 172.368 32.8 173.168 33.44C173.994 34.0533 174.594 34.8 174.968 35.68C175.368 36.5333 175.568 37.52 175.568 38.64C175.568 41.0133 174.728 42.88 173.048 44.24C171.368 45.6 169.194 46.28 166.528 46.28C163.568 46.28 161.114 45.7067 159.168 44.56V40.28C161.274 41.8533 163.714 42.64 166.488 42.64C167.954 42.64 169.114 42.3067 169.968 41.64C170.821 40.9467 171.248 40 171.248 38.8C171.248 38.08 170.994 37.4267 170.488 36.84C169.981 36.2267 169.434 35.7733 168.848 35.48C168.261 35.16 167.381 34.7333 166.208 34.2C165.514 33.88 165.021 33.6533 164.728 33.52C164.461 33.3867 164.008 33.1467 163.368 32.8C162.728 32.4533 162.248 32.16 161.928 31.92C161.634 31.68 161.261 31.3467 160.808 30.92C160.354 30.4933 160.021 30.0667 159.808 29.64C159.621 29.2133 159.434 28.72 159.248 28.16C159.088 27.5733 159.008 26.9467 159.008 26.28C159.008 23.9867 159.834 22.1733 161.488 20.84C163.168 19.5067 165.328 18.84 167.968 18.84C170.394 18.84 172.461 19.2667 174.168 20.12Z" fill="black"/>
<path d="M86.496 52.824V53.64C86.1387 53.416 85.7333 53.304 85.28 53.304C84.9867 53.304 84.7547 53.3707 84.584 53.504C84.4187 53.632 84.336 53.8027 84.336 54.016C84.336 54.2293 84.4187 54.4 84.584 54.528C84.7493 54.656 85.0027 54.7947 85.344 54.944C85.568 55.04 85.7413 55.1227 85.864 55.192C85.992 55.2613 86.136 55.36 86.296 55.488C86.4613 55.6107 86.5813 55.76 86.656 55.936C86.736 56.1067 86.776 56.304 86.776 56.528C86.776 57.0027 86.608 57.376 86.272 57.648C85.936 57.92 85.5013 58.056 84.968 58.056C84.376 58.056 83.8853 57.9413 83.496 57.712V56.856C83.9173 57.1707 84.4053 57.328 84.96 57.328C85.2533 57.328 85.4853 57.2613 85.656 57.128C85.8267 56.9893 85.912 56.8 85.912 56.56C85.912 56.416 85.8613 56.2853 85.76 56.168C85.6587 56.0453 85.5493 55.9547 85.432 55.896C85.3147 55.832 85.1387 55.7467 84.904 55.64C84.7653 55.576 84.6667 55.5307 84.608 55.504C84.5547 55.4773 84.464 55.4293 84.336 55.36C84.208 55.2907 84.112 55.232 84.048 55.184C83.9893 55.136 83.9147 55.0693 83.824 54.984C83.7333 54.8987 83.6667 54.8133 83.624 54.728C83.5867 54.6427 83.5493 54.544 83.512 54.432C83.48 54.3147 83.464 54.1893 83.464 54.056C83.464 53.5973 83.6293 53.2347 83.96 52.968C84.296 52.7013 84.728 52.568 85.256 52.568C85.7413 52.568 86.1547 52.6533 86.496 52.824ZM89.7559 58V52.608H90.5799V58H89.7559ZM91.6679 55.328L93.7639 58H92.7239L90.6839 55.336L92.6439 52.608H93.6439L91.6679 55.328ZM97.7369 55.992H99.4649L99.3769 55.72C99.1743 55.0907 99.0089 54.5707 98.8809 54.16C98.7529 53.744 98.6756 53.4853 98.6489 53.384L98.6089 53.232C98.5503 53.4827 98.2889 54.312 97.8249 55.72L97.7369 55.992ZM100.113 58L99.6889 56.68H97.5129L97.0809 58H96.2089L98.0729 52.608H99.1529L100.993 58H100.113ZM107.066 52.608V53.296H105.65V58H104.826V53.296H103.418V52.608H107.066ZM110.65 57.312H112.938V58H109.826V52.608H112.898V53.296H110.65V54.96H112.642V55.648H110.65V57.312ZM116.76 57.32H117.816C118.493 57.32 118.832 57.04 118.832 56.48C118.832 56.208 118.738 55.9973 118.552 55.848C118.37 55.6933 118.098 55.616 117.736 55.616H116.76V57.32ZM116.76 53.288V54.944H117.504C117.904 54.944 118.2 54.864 118.392 54.704C118.589 54.5387 118.688 54.3253 118.688 54.064C118.688 53.8347 118.6 53.648 118.424 53.504C118.253 53.36 117.992 53.288 117.64 53.288H116.76ZM115.936 52.608H117.704C118.269 52.608 118.714 52.7413 119.04 53.008C119.365 53.2693 119.528 53.616 119.528 54.048C119.528 54.3467 119.442 54.608 119.272 54.832C119.106 55.056 118.893 55.2 118.632 55.264C118.925 55.3173 119.17 55.4533 119.368 55.672C119.57 55.8907 119.672 56.184 119.672 56.552C119.672 56.9787 119.525 57.328 119.232 57.6C118.944 57.8667 118.536 58 118.008 58H115.936V52.608ZM122.368 55.28C122.368 54.4427 122.592 53.7707 123.04 53.264C123.488 52.7573 124.088 52.504 124.84 52.504C125.608 52.504 126.213 52.7573 126.656 53.264C127.099 53.7653 127.32 54.4373 127.32 55.28C127.32 56.1227 127.096 56.7973 126.648 57.304C126.205 57.8107 125.605 58.064 124.848 58.064C124.096 58.064 123.493 57.8107 123.04 57.304C122.592 56.7973 122.368 56.1227 122.368 55.28ZM123.656 53.816C123.373 54.1733 123.232 54.6613 123.232 55.28C123.232 55.8987 123.379 56.3893 123.672 56.752C123.965 57.1147 124.357 57.296 124.848 57.296C125.355 57.296 125.749 57.1173 126.032 56.76C126.315 56.4027 126.456 55.9093 126.456 55.28C126.456 54.656 126.312 54.1653 126.024 53.808C125.741 53.4507 125.347 53.272 124.84 53.272C124.339 53.272 123.944 53.4533 123.656 53.816ZM131.464 55.992H133.192L133.104 55.72C132.901 55.0907 132.736 54.5707 132.608 54.16C132.48 53.744 132.402 53.4853 132.376 53.384L132.336 53.232C132.277 53.4827 132.016 54.312 131.552 55.72L131.464 55.992ZM133.84 58L133.416 56.68H131.24L130.808 58H129.936L131.799 52.608H132.88L134.72 58H133.84ZM138.377 53.296V55.264H139.121C139.462 55.264 139.721 55.176 139.897 55C140.073 54.8187 140.161 54.5787 140.161 54.28C140.161 53.624 139.801 53.296 139.081 53.296H138.377ZM140.353 58L139.089 55.952H138.377V58H137.553V52.608H139.057C139.675 52.608 140.153 52.76 140.489 53.064C140.825 53.3627 140.993 53.7707 140.993 54.288C140.987 54.6667 140.891 54.9893 140.705 55.256C140.518 55.5173 140.259 55.7067 139.929 55.824L141.337 58H140.353ZM144.94 57.304H145.788C146.401 57.304 146.868 57.112 147.188 56.728C147.508 56.344 147.668 55.8507 147.668 55.248C147.668 54.6933 147.494 54.232 147.148 53.864C146.801 53.496 146.34 53.312 145.764 53.312H144.94V57.304ZM144.1 52.608H145.78C146.58 52.608 147.236 52.856 147.748 53.352C148.26 53.848 148.516 54.48 148.516 55.248C148.516 56.048 148.273 56.7067 147.788 57.224C147.308 57.7413 146.644 58 145.796 58H144.1V52.608ZM154.348 52.824V53.64C153.99 53.416 153.585 53.304 153.132 53.304C152.838 53.304 152.606 53.3707 152.436 53.504C152.27 53.632 152.188 53.8027 152.188 54.016C152.188 54.2293 152.27 54.4 152.436 54.528C152.601 54.656 152.854 54.7947 153.196 54.944C153.42 55.04 153.593 55.1227 153.716 55.192C153.844 55.2613 153.988 55.36 154.148 55.488C154.313 55.6107 154.433 55.76 154.508 55.936C154.588 56.1067 154.628 56.304 154.628 56.528C154.628 57.0027 154.46 57.376 154.124 57.648C153.788 57.92 153.353 58.056 152.82 58.056C152.228 58.056 151.737 57.9413 151.348 57.712V56.856C151.769 57.1707 152.257 57.328 152.812 57.328C153.105 57.328 153.337 57.2613 153.508 57.128C153.678 56.9893 153.764 56.8 153.764 56.56C153.764 56.416 153.713 56.2853 153.612 56.168C153.51 56.0453 153.401 55.9547 153.284 55.896C153.166 55.832 152.99 55.7467 152.756 55.64C152.617 55.576 152.518 55.5307 152.46 55.504C152.406 55.4773 152.316 55.4293 152.188 55.36C152.06 55.2907 151.964 55.232 151.9 55.184C151.841 55.136 151.766 55.0693 151.676 54.984C151.585 54.8987 151.518 54.8133 151.476 54.728C151.438 54.6427 151.401 54.544 151.364 54.432C151.332 54.3147 151.316 54.1893 151.316 54.056C151.316 53.5973 151.481 53.2347 151.812 52.968C152.148 52.7013 152.58 52.568 153.108 52.568C153.593 52.568 154.006 52.6533 154.348 52.824Z" fill="black"/>
<g style="mix-blend-mode:darken">
<path d="M21 30.5455L21 45.1729C21 46.7342 22.2658 48 23.8272 48V48C25.3939 48 26.6618 46.7259 26.6543 45.1592L26.5693 27.5596C26.5598 25.5965 28.1485 24 30.1117 24V24C32.0614 24 33.6446 25.5756 33.6541 27.5253L33.7393 45.1797C33.7469 46.7395 35.0135 48 36.5733 48V48C38.1438 48 39.4148 46.7228 39.4072 45.1524L39.3222 27.551C39.3127 25.5926 40.8977 24 42.8561 24V24C44.8078 24 46.39 25.5822 46.39 27.5339V43.6364" stroke="black" stroke-linecap="round"/>
</g>
</svg>
